<svg width="59" height="57" viewBox="0 0 59 57" fill="none" xmlns="http://www.w3.org/2000/svg">
<path d="M7.49727 16.2937H4.74693M54.2531 16.2937H51.5027M29.5 2.47001V7.99948M25.3745 7.99948H33.6255M12.998 35.6468H21.249M37.751 35.6468H46.002M39.1537 2H19.8463C12.998 2 11.4853 5.42827 10.6052 9.63067L7.49727 24.5879H51.5027L48.3948 9.63067C47.5147 5.42827 46.002 2 39.1537 2V2ZM56.9759 48.9729C57.2784 52.2076 54.6931 55 51.3927 55H46.2221C43.2517 55 42.8392 53.7282 42.3166 52.1523L41.7665 50.4935C40.9964 48.2264 40.5014 46.7058 36.5409 46.7058H22.4591C18.4986 46.7058 17.9211 48.4199 17.2335 50.4935L16.6834 52.1523C16.1608 53.7282 15.7483 55 12.7779 55H7.60728C4.30688 55 1.72156 52.2076 2.02409 48.9729L3.56428 32.1356C3.94933 27.9885 4.74693 24.5879 11.9528 24.5879H47.0472C54.2531 24.5879 55.0507 27.9885 55.4357 32.1356L56.9759 48.9729Z" stroke="white" stroke-width="3" stroke-linecap="round" stroke-linejoin="round"/>
</svg>
